<svg xmlns="http://www.w3.org/2000/svg" width="844" height="843" viewBox="0 0 844 843" fill="none">
<path d="M794.449 344.697C784.715 297.231 766.309 252.783 739.611 212.356L765.698 169.633L673.654 77.6241L630.914 103.701C590.459 77.0126 546.007 58.6135 498.524 48.884L486.765 0.25H356.618L344.859 48.884C297.375 58.6135 252.91 77.0126 212.468 103.701L169.729 77.6241L77.6852 169.633L103.772 212.356C77.0734 252.796 58.6674 297.231 48.9342 344.697L0.281738 356.451V486.549L48.9342 498.303C58.6674 545.769 77.0734 590.217 103.772 630.644L77.6852 673.367L169.729 765.376L212.468 739.299C252.924 765.987 297.375 784.387 344.859 794.116L356.618 842.75H486.765L498.524 794.116C546.007 784.387 590.473 765.987 630.914 739.299L673.654 765.376L765.698 673.367L739.611 630.644C766.309 590.204 784.715 545.769 794.449 498.303L843.101 486.549V356.451L794.449 344.697ZM815.913 465.161L770.945 476.031L769.368 484.755C760.355 534.572 741.147 580.923 712.274 622.559L707.244 629.815L731.332 669.29L669.562 731.037L630.072 706.958L622.812 711.986C581.174 740.848 534.792 760.049 484.957 769.058L476.23 770.635L465.368 815.573H378.014L367.139 770.621L358.412 769.045C308.577 760.036 262.208 740.835 220.557 711.972L213.297 706.944L173.807 731.024L112.037 669.277L136.125 629.801L131.095 622.545C102.222 580.923 83.014 534.558 74.0012 484.742L72.4243 476.018L27.4695 465.161V377.839L72.4379 366.969L74.0148 358.245C83.0275 308.428 102.236 262.077 131.109 220.441L136.139 213.185L112.05 173.71L173.821 111.963L213.311 136.042L220.57 131.014C262.208 102.152 308.59 82.9509 358.426 73.9416L367.153 72.3653L378.014 27.4274H465.368L476.243 72.3789L484.971 73.9552C534.806 82.9645 581.174 102.165 622.826 131.028L630.085 136.056L669.575 111.976L731.346 173.723L707.258 213.199L712.287 220.455C741.161 262.077 760.369 308.442 769.381 358.258L770.958 366.982L815.927 377.853V465.161H815.913Z" fill="#3CCF91"/>
<path d="M435.285 54.605H408.098V81.7824H435.285V54.605Z" fill="#3CCF91"/>
<path d="M171.764 152.457L152.54 171.674L171.764 190.891L190.989 171.674L171.764 152.457Z" fill="#3CCF91"/>
<path d="M81.8449 407.911H54.6572V435.089H81.8449V407.911Z" fill="#3CCF91"/>
<path d="M171.765 652.11L152.541 671.327L171.765 690.544L190.99 671.327L171.765 652.11Z" fill="#3CCF91"/>
<path d="M435.285 761.218H408.098V788.395H435.285V761.218Z" fill="#3CCF91"/>
<path d="M671.606 652.109L652.381 671.326L671.606 690.543L690.83 671.326L671.606 652.109Z" fill="#3CCF91"/>
<path d="M788.725 407.911H761.538V435.089H788.725V407.911Z" fill="#3CCF91"/>
<path d="M671.605 152.456L652.38 171.673L671.605 190.89L690.829 171.673L671.605 152.456Z" fill="#3CCF91"/>
<path d="M421.691 108.959C249.281 108.959 109.033 249.154 109.033 421.5C109.033 593.845 249.281 734.04 421.691 734.04C594.102 734.04 734.35 593.845 734.35 421.5C734.35 249.154 594.102 108.959 421.691 108.959ZM421.691 706.863C264.288 706.863 136.22 578.844 136.22 421.5C136.22 264.156 264.288 136.137 421.691 136.137C579.095 136.137 707.162 264.156 707.162 421.5C707.162 578.844 579.095 706.863 421.691 706.863Z" fill="#3CCF91"/>
<path d="M544.036 383.234V312.791C544.036 245.35 489.157 190.492 421.691 190.492C354.225 190.492 299.346 245.35 299.346 312.791V383.234C283.564 388.86 272.159 403.808 272.159 421.5V503.032C272.159 585.448 339.244 652.508 421.691 652.508C504.138 652.508 571.224 585.448 571.224 503.032V421.5C571.224 403.808 559.818 388.86 544.036 383.234ZM421.691 217.67C474.15 217.67 516.848 260.352 516.848 312.791V380.734H489.66V312.791C489.66 275.326 459.169 244.847 421.691 244.847C384.213 244.847 353.722 275.326 353.722 312.791V380.734H326.534V312.791C326.534 260.352 369.232 217.67 421.691 217.67ZM462.473 380.734H380.91V312.791C380.91 290.315 399.207 272.024 421.691 272.024C444.175 272.024 462.473 290.315 462.473 312.791V380.734ZM544.036 503.032C544.036 570.473 489.157 625.331 421.691 625.331C354.225 625.331 299.346 570.473 299.346 503.032V421.5C299.346 413.999 305.436 407.911 312.94 407.911H530.442C537.946 407.911 544.036 413.999 544.036 421.5V503.032Z" fill="#3CCF91"/>
<path d="M421.691 435.089C391.703 435.089 367.316 459.467 367.316 489.444C367.316 514.705 384.702 535.795 408.097 541.869V598.153H435.285V541.869C458.68 535.795 476.067 514.705 476.067 489.444C476.067 459.467 451.679 435.089 421.691 435.089ZM421.691 516.621C406.697 516.621 394.504 504.432 394.504 489.444C394.504 474.455 406.697 462.266 421.691 462.266C436.685 462.266 448.879 474.455 448.879 489.444C448.879 504.432 436.685 516.621 421.691 516.621Z" fill="#3CCF91"/>
</svg>