<svg width="180" height="40" viewBox="0 0 180 40" fill="none" xmlns="http://www.w3.org/2000/svg">
  <path d="M37.5478 16.2914C37.0877 14.0465 36.2174 11.9441 34.9551 10.0321L36.1885 8.0114L31.8367 3.6596L29.816 4.89296C27.9033 3.63068 25.8016 2.76045 23.5567 2.30026L23.0007 0H16.8474L16.2914 2.30026C14.0465 2.76045 11.9441 3.63068 10.0321 4.89296L8.0114 3.6596L3.6596 8.0114L4.89296 10.0321C3.63068 11.9448 2.76045 14.0465 2.30026 16.2914L0 16.8474V23.0007L2.30026 23.5567C2.76045 25.8016 3.63068 27.904 4.89296 29.816L3.6596 31.8367L8.0114 36.1885L10.0321 34.9551C11.9448 36.2174 14.0465 37.0877 16.2914 37.5478L16.8474 39.8481H23.0007L23.5567 37.5478C25.8016 37.0877 27.904 36.2174 29.816 34.9551L31.8367 36.1885L36.1885 31.8367L34.9551 29.816C36.2174 27.9033 37.0877 25.8016 37.5478 23.5567L39.8481 23.0007V16.8474L37.5478 16.2914ZM38.5627 21.9891L36.4366 22.5033L36.362 22.9159C35.9359 25.2721 35.0278 27.4643 33.6626 29.4336L33.4248 29.7768L34.5637 31.6439L31.6433 34.5644L29.7762 33.4255L29.433 33.6633C27.4643 35.0284 25.2714 35.9366 22.9152 36.3627L22.5026 36.4372L21.9891 38.5627H17.859L17.3449 36.4366L16.9322 36.362C14.5761 35.9359 12.3838 35.0278 10.4145 33.6626L10.0713 33.4248L8.20421 34.5637L5.28373 31.6433L6.42261 29.7762L6.18481 29.433C4.81969 27.4643 3.91154 25.2714 3.48542 22.9152L3.41087 22.5026L1.28542 21.9891V17.859L3.41151 17.3449L3.48607 16.9322C3.91218 14.5761 4.82033 12.3838 6.18545 10.4145L6.42326 10.0713L5.28437 8.20421L8.20485 5.28373L10.0719 6.42261L10.4151 6.18481C12.3838 4.81969 14.5767 3.91154 16.9329 3.48542L17.3455 3.41087L17.859 1.28542H21.9891L22.5033 3.41151L22.9159 3.48607C25.2721 3.91218 27.4643 4.82033 29.4336 6.18545L29.7768 6.42326L31.6439 5.28437L34.5644 8.20485L33.4255 10.0719L33.6633 10.4151C35.0284 12.3838 35.9366 14.5767 36.3627 16.9329L36.4372 17.3455L38.5633 17.8597V21.9891H38.5627Z" fill="#3CCF91"/>
  <path d="M20.5667 2.57089H19.2812V3.85632H20.5667V2.57089Z" fill="#3CCF91"/>
  <path d="M8.10765 7.19905L7.19873 8.10797L8.10765 9.01689L9.01658 8.10797L8.10765 7.19905Z" fill="#3CCF91"/>
  <path d="M3.85622 19.2814H2.5708V20.5668H3.85622V19.2814Z" fill="#3CCF91"/>
  <path d="M8.10765 30.8313L7.19873 31.7403L8.10765 32.6492L9.01658 31.7403L8.10765 30.8313Z" fill="#3CCF91"/>
  <path d="M20.5667 35.9919H19.2812V37.2773H20.5667V35.9919Z" fill="#3CCF91"/>
  <path d="M31.74 30.8313L30.8311 31.7402L31.74 32.6491L32.6489 31.7402L31.74 30.8313Z" fill="#3CCF91"/>
  <path d="M37.2771 19.2814H35.9917V20.5668H37.2771V19.2814Z" fill="#3CCF91"/>
  <path d="M31.74 7.19896L30.8311 8.10788L31.74 9.0168L32.6489 8.10788L31.74 7.19896Z" fill="#3CCF91"/>
  <path d="M19.924 5.14169C11.7725 5.14169 5.1416 11.7725 5.1416 19.9241C5.1416 28.0756 11.7725 34.7064 19.924 34.7064C28.0755 34.7064 34.7063 28.0756 34.7063 19.9241C34.7063 11.7725 28.0755 5.14169 19.924 5.14169ZM19.924 33.421C12.482 33.421 6.42702 27.366 6.42702 19.9241C6.42702 12.4821 12.482 6.42712 19.924 6.42712C27.3659 6.42712 33.4209 12.4821 33.4209 19.9241C33.4209 27.366 27.3659 33.421 19.924 33.421Z" fill="#3CCF91"/>
  <path d="M25.7082 18.1142V14.7824C25.7082 11.5926 23.1136 8.99799 19.9238 8.99799C16.7341 8.99799 14.1394 11.5926 14.1394 14.7824V18.1142C13.3932 18.3803 12.854 19.0873 12.854 19.9241V23.7803C12.854 27.6784 16.0258 30.8502 19.9238 30.8502C23.8219 30.8502 26.9937 27.6784 26.9937 23.7803V19.9241C26.9937 19.0873 26.4544 18.3803 25.7082 18.1142ZM19.9238 10.2834C22.4041 10.2834 24.4228 12.3022 24.4228 14.7824V17.9959H23.1374V14.7824C23.1374 13.0104 21.6958 11.5688 19.9238 11.5688C18.1519 11.5688 16.7103 13.0104 16.7103 14.7824V17.9959H15.4248V14.7824C15.4248 12.3022 17.4436 10.2834 19.9238 10.2834ZM21.852 17.9959H17.9957V14.7824C17.9957 13.7193 18.8608 12.8543 19.9238 12.8543C20.9869 12.8543 21.852 13.7193 21.852 14.7824V17.9959ZM25.7082 23.7803C25.7082 26.9701 23.1136 29.5648 19.9238 29.5648C16.7341 29.5648 14.1394 26.9701 14.1394 23.7803V19.9241C14.1394 19.5693 14.4274 19.2814 14.7821 19.2814H25.0655C25.4203 19.2814 25.7082 19.5693 25.7082 19.9241V23.7803Z" fill="#3CCF91"/>
  <path d="M19.9239 20.5668C18.5061 20.5668 17.353 21.7198 17.353 23.1376C17.353 24.3324 18.1751 25.3299 19.2812 25.6172V28.2793H20.5666V25.6172C21.6727 25.3299 22.4947 24.3324 22.4947 23.1376C22.4947 21.7198 21.3417 20.5668 19.9239 20.5668ZM19.9239 24.423C19.215 24.423 18.6385 23.8465 18.6385 23.1376C18.6385 22.4287 19.215 21.8522 19.9239 21.8522C20.6328 21.8522 21.2093 22.4287 21.2093 23.1376C21.2093 23.8465 20.6328 24.423 19.9239 24.423Z" fill="#3CCF91"/>
  <path d="M57.1293 22.7379H55.4217V27.3635C54.9606 27.4499 54.3842 27.4931 53.6926 27.4931C52.9865 27.4931 52.4101 27.4499 51.9634 27.3635V12.7086L52.1147 12.5573C53.3683 12.5285 54.4095 12.5069 55.238 12.4925C56.0666 12.4781 56.697 12.4709 57.1293 12.4709C57.9219 12.4709 58.646 12.5789 59.3016 12.7951C59.9572 13.0112 60.5156 13.3355 60.9767 13.7678C61.4379 14.2001 61.7945 14.7368 62.0467 15.3781C62.2989 16.0193 62.4249 16.7578 62.4249 17.5936C62.4249 18.4293 62.2952 19.1679 62.0359 19.8091C61.7765 20.4503 61.4162 20.9871 60.9551 21.4194C60.494 21.8517 59.9356 22.1795 59.28 22.4029C58.6243 22.6262 57.9074 22.7379 57.1293 22.7379V22.7379ZM55.4217 15.1079V20.1441C55.8252 20.1297 56.1458 20.1189 56.3836 20.1117C56.6214 20.1045 56.7763 20.1009 56.8483 20.1009C57.2374 20.1009 57.5616 20.0324 57.821 19.8956C58.0804 19.7587 58.2893 19.5785 58.4478 19.3552C58.6063 19.1318 58.7216 18.8688 58.7937 18.5662C58.8657 18.2636 58.9017 17.9466 58.9017 17.6152C58.9017 17.2982 58.8657 16.9884 58.7937 16.6858C58.7216 16.3831 58.6099 16.1166 58.4586 15.886C58.3073 15.6554 58.1092 15.4717 57.8642 15.3348C57.6192 15.1979 57.3311 15.1295 56.9996 15.1295H56.1134C56.1134 15.1295 55.8829 15.1223 55.4217 15.1079V15.1079ZM75.2857 17.1613C75.2857 17.6368 75.2137 18.0871 75.0696 18.5122C74.9255 18.9373 74.7346 19.3192 74.4968 19.6578C74.259 19.9964 73.978 20.2918 73.6538 20.544C73.3296 20.7962 72.9946 20.9871 72.6487 21.1168C73.398 21.3906 73.9528 22.0534 74.3131 23.1053L74.9615 24.9426C75.2065 25.6631 75.5667 26.1963 76.0423 26.5421C75.8261 26.8303 75.5019 27.0717 75.0696 27.2662C74.6373 27.4607 74.1618 27.558 73.643 27.558C73.1243 27.558 72.7208 27.4103 72.4326 27.1149C72.1444 26.8195 71.8778 26.3043 71.6328 25.5694L70.8547 23.2999C70.6962 22.8676 70.4837 22.5362 70.2171 22.3056C69.9505 22.075 69.5506 21.9598 69.0174 21.9598H68.1312V27.3635C67.6701 27.4499 67.0937 27.4931 66.4021 27.4931C65.7104 27.4931 65.1412 27.4499 64.6945 27.3635V12.7086L64.8458 12.5573C66.0995 12.5285 67.155 12.5069 68.0124 12.4925C68.8697 12.4781 69.5434 12.4709 70.0333 12.4709C70.8259 12.4709 71.5464 12.5681 72.1948 12.7627C72.8433 12.9572 73.3944 13.249 73.8484 13.6381C74.3023 14.0271 74.6553 14.5171 74.9075 15.1079C75.1597 15.6987 75.2857 16.3831 75.2857 17.1613V17.1613ZM68.1312 15.0646V19.3011C68.7797 19.3011 69.3345 19.2903 69.7956 19.2687C70.2567 19.2471 70.6277 19.1606 70.9087 19.0093C71.1897 18.858 71.4023 18.6455 71.5464 18.3717C71.6905 18.0979 71.7625 17.7016 71.7625 17.1829C71.7625 15.7851 71.0853 15.0863 69.7307 15.0863H68.8337C68.8337 15.0863 68.5996 15.0791 68.1312 15.0646V15.0646ZM80.9056 23.3431C81.2946 24.4671 82.08 25.0291 83.2616 25.0291C83.8524 25.0291 84.3315 24.8814 84.699 24.586C85.0664 24.2906 85.3546 23.9159 85.5636 23.462C85.7725 23.0081 85.913 22.5001 85.9851 21.9381C86.0571 21.3762 86.0931 20.8214 86.0931 20.2738C86.0931 19.7695 86.0751 19.2075 86.0391 18.5879C86.0031 17.9682 85.8986 17.3882 85.7257 16.8479C85.5528 16.3075 85.279 15.8536 84.9043 15.4861C84.5297 15.1187 83.9821 14.935 83.2616 14.935C82.5699 14.935 82.0404 15.1115 81.6729 15.4645C81.3055 15.8176 81.0317 16.2535 80.8515 16.7722C80.6714 17.291 80.5597 17.8421 80.5165 18.4257C80.4733 19.0093 80.4517 19.5245 80.4517 19.9712C80.4517 20.6341 80.4841 21.2249 80.5489 21.7436C80.6138 22.2624 80.7327 22.7955 80.9056 23.3431ZM79.1548 26.326C77.6129 25.0435 76.842 22.9324 76.842 19.9928C76.842 18.7247 76.9897 17.6116 77.2851 16.6533C77.5805 15.6951 78.0056 14.8917 78.5604 14.2433C79.1152 13.5948 79.7888 13.1049 80.5814 12.7735C81.3739 12.4421 82.2673 12.2763 83.2616 12.2763C84.2559 12.2763 85.1529 12.4421 85.9526 12.7735C86.7524 13.1049 87.4296 13.5984 87.9844 14.2541C88.5392 14.9097 88.9643 15.7167 89.2597 16.6749C89.5551 17.6332 89.7028 18.7392 89.7028 19.9928C89.7028 21.2465 89.5551 22.3524 89.2597 23.3107C88.9643 24.2689 88.5392 25.0723 87.9844 25.7207C87.4296 26.3692 86.7524 26.8591 85.9526 27.1905C85.1529 27.522 84.2559 27.6877 83.2616 27.6877C81.6189 27.6877 80.2499 27.2338 79.1548 26.326ZM97.2896 22.7379H95.582V27.3635C95.1209 27.4499 94.5445 27.4931 93.8528 27.4931C93.1468 27.4931 92.5704 27.4499 92.1237 27.3635V12.7086L92.275 12.5573C93.5286 12.5285 94.5697 12.5069 95.3983 12.4925C96.2269 12.4781 96.8573 12.4709 97.2896 12.4709C98.0821 12.4709 98.8062 12.5789 99.4619 12.7951C100.118 13.0112 100.676 13.3355 101.137 13.7678C101.598 14.2001 101.955 14.7368 102.207 15.3781C102.459 16.0193 102.585 16.7578 102.585 17.5936C102.585 18.4293 102.456 19.1679 102.196 19.8091C101.937 20.4503 101.577 20.9871 101.115 21.4194C100.654 21.8517 100.096 22.1795 99.4403 22.4029C98.7846 22.6262 98.0677 22.7379 97.2896 22.7379V22.7379ZM95.582 15.1079V20.1441C95.9855 20.1297 96.3061 20.1189 96.5439 20.1117C96.7816 20.1045 96.9366 20.1009 97.0086 20.1009C97.3977 20.1009 97.7219 20.0324 97.9813 19.8956C98.2406 19.7587 98.4496 19.5785 98.6081 19.3552C98.7666 19.1318 98.8819 18.8688 98.9539 18.5662C99.026 18.2636 99.062 17.9466 99.062 17.6152C99.062 17.2982 99.026 16.9884 98.9539 16.6858C98.8819 16.3831 98.7702 16.1166 98.6189 15.886C98.4676 15.6554 98.2695 15.4717 98.0245 15.3348C97.7795 15.1979 97.4913 15.1295 97.1599 15.1295H96.2737C96.2737 15.1295 96.0431 15.1223 95.582 15.1079V15.1079ZM108.248 22.9973L108.227 24.5535V24.5752C108.89 24.5463 109.423 24.5319 109.826 24.5319H114.841C114.841 25.0651 114.819 25.4758 114.776 25.764C114.603 26.8735 113.868 27.4283 112.571 27.4283H106.822C106.202 27.4283 105.716 27.2482 105.363 26.8879C105.01 26.5277 104.833 26.0378 104.833 25.4181V12.7519L104.984 12.6006H114.3C114.387 13.0184 114.43 13.4724 114.43 13.9623C114.43 14.4522 114.329 14.9638 114.128 15.4969H108.227L108.248 17.0532V18.5662C108.623 18.5518 109.113 18.5446 109.718 18.5446H113.025C113.155 18.9481 113.22 19.4092 113.22 19.928C113.22 20.4467 113.155 20.9223 113.025 21.3545H108.248V22.9973V22.9973ZM122.709 24.4455H126.448C126.448 25.0219 126.412 25.5154 126.34 25.9261C126.268 26.3368 126.037 26.6898 125.648 26.9852C125.259 27.2806 124.748 27.4283 124.114 27.4283H119.229C118.609 27.4283 118.119 27.2482 117.759 26.8879C117.399 26.5277 117.218 26.0378 117.218 25.4181V12.6006L117.37 12.4493H118.645C120 12.4493 120.677 13.1842 120.677 14.654V24.5319C121.311 24.4743 121.988 24.4455 122.709 24.4455V24.4455ZM132.111 24.2725C131.722 24.2725 131.434 24.2653 131.246 24.2509L130.317 27.3851C129.971 27.4715 129.488 27.5148 128.869 27.5148C128.177 27.5148 127.615 27.4355 127.183 27.277L127.075 27.1041L131.83 12.6006C132.392 12.5141 133.048 12.4709 133.797 12.4709C134.647 12.4709 135.324 12.5213 135.829 12.6222L140.498 27.1473C139.993 27.4211 139.424 27.558 138.79 27.558C138.041 27.558 137.515 27.4283 137.212 27.1689C136.91 26.9095 136.65 26.4124 136.434 25.6775L136.023 24.2509C135.836 24.2653 135.555 24.2725 135.18 24.2725H132.111ZM132.046 21.5491L132.911 21.5275H134.489C134.561 21.5275 134.687 21.5311 134.867 21.5383C135.047 21.5455 135.18 21.5491 135.267 21.5491L134.899 20.209C134.553 18.9985 134.157 17.5143 133.711 15.7563H133.581C133.466 16.3759 133.12 17.7521 132.543 19.8847L132.046 21.5491ZM153.791 12.6006V21.9165C153.791 23.761 153.286 25.184 152.278 26.1855C151.269 27.1869 149.828 27.6877 147.955 27.6877C146.081 27.6877 144.637 27.1869 143.621 26.1855C142.605 25.184 142.097 23.761 142.097 21.9165V12.6006L142.248 12.4493H143.524C144.893 12.4493 145.577 13.1842 145.577 14.654V21.9598C145.577 22.9685 145.757 23.7178 146.117 24.2077C146.478 24.6976 147.09 24.9426 147.955 24.9426C148.819 24.9426 149.432 24.6976 149.792 24.2077C150.152 23.7178 150.332 22.9685 150.332 21.9598V12.6006C150.779 12.5141 151.355 12.4709 152.061 12.4709C152.753 12.4709 153.33 12.5141 153.791 12.6006V12.6006ZM162.458 15.4537L162.48 17.0532V27.3635C161.99 27.4499 161.406 27.4931 160.729 27.4931C160.052 27.4931 159.483 27.4499 159.021 27.3635V15.4537L157.638 15.4753H155.412C155.325 15.0574 155.282 14.5783 155.282 14.0379C155.282 13.4976 155.325 13.0184 155.412 12.6006H166.111C166.226 12.9752 166.284 13.4291 166.284 13.9623C166.284 14.4955 166.14 14.8809 165.852 15.1187C165.564 15.3564 165.102 15.4753 164.468 15.4753H163.842L162.48 15.4537H162.458V15.4537ZM175.989 18.3285L175.967 16.729V12.6006C176.414 12.5141 176.994 12.4709 177.707 12.4709C178.421 12.4709 178.994 12.5141 179.426 12.6006V27.3635C178.965 27.4499 178.388 27.4931 177.697 27.4931C177.005 27.4931 176.429 27.4499 175.967 27.3635V22.7811L175.989 21.1816L174.908 21.2032H172.401L171.32 21.1816L171.342 22.7811V27.3635C170.895 27.4499 170.319 27.4931 169.613 27.4931C168.907 27.4931 168.33 27.4499 167.883 27.3635V12.6006C168.33 12.5141 168.907 12.4709 169.613 12.4709C170.319 12.4709 170.895 12.5141 171.342 12.6006V16.729L171.32 18.3285L172.401 18.3069H174.908L175.989 18.3285Z" fill="white"/>
</svg>
